<?xml version="1.0" encoding="UTF-8"?>
<svg version="1.1" xmlns="http://www.w3.org/2000/svg" width="512" height="512">
<path d="M0 0 C3.29158865 -0.05905417 6.58303756 -0.09394375 9.875 -0.125 C10.7928125 -0.14175781 11.710625 -0.15851563 12.65625 -0.17578125 C18.84547003 -0.21936731 25.12858875 -0.16597363 31 2 C33.0078125 4.25 33.0078125 4.25 34.125 7 C37.13758187 13.48341563 41.04793259 20.05223473 46.88110352 24.40307617 C49.07834788 26.15855792 50.56105704 27.5731866 52 30 C52.19710539 34.46234307 51.15450796 38.50554243 50.0625 42.8125 C49.80919922 43.93720703 49.55589844 45.06191406 49.29492188 46.22070312 C48.7933468 48.43975378 48.27725885 50.65558003 47.74584961 52.86767578 C47.05898289 55.75229116 46.41803093 58.63869423 45.8203125 61.54296875 C45.66449707 62.29989014 45.50868164 63.05681152 45.34814453 63.83666992 C44.70132641 67.85592331 44.14206489 72.28412979 46 76 C48.28431033 76.94141059 48.28431033 76.94141059 51 77 C55.84208495 74.59199725 59.81921652 70.9526507 63.9375 67.5 C65.4594307 66.24844893 66.98156914 64.99715045 68.50390625 63.74609375 C71.3293249 61.41152918 74.1032004 59.03541705 76.83984375 56.59765625 C85.22846729 49.28871133 85.22846729 49.28871133 89.99609375 48.51171875 C92.79249041 48.74830709 95.2943969 49.26864166 98 50 C99.43326033 50.21754844 100.87127487 50.40619066 102.3125 50.5625 C103.02921875 50.65917969 103.7459375 50.75585938 104.484375 50.85546875 C107.14869188 51.0725369 107.14869188 51.0725369 110.390625 50.67578125 C119.62558355 49.9193006 119.62558355 49.9193006 123.39453125 52.8828125 C125.60685339 55.80639402 127.30435284 58.7481745 129 62 C129.70543493 63.27880819 130.41117508 64.55744804 131.1171875 65.8359375 C140.063988 82.49935343 143.38453199 99.19927978 143.1875 118.0625 C143.18685547 119.23876953 143.18621094 120.41503906 143.18554688 121.62695312 C143.14820861 129.13194441 142.719551 136.53188178 142 144 C140.44431589 160.8229102 150.90116687 173.28615889 159.6953125 186.80078125 C169.72251626 202.40506697 169.72251626 202.40506697 169 211 C166.78161331 215.53322497 163.86341806 216.64029969 159.23999023 218.31079102 C154.91820244 219.64053564 150.47083534 220.18715189 146.00390625 220.81640625 C141.91360395 221.4552865 139.04747177 222.11292148 136 225 C136.43112578 229.09569492 136.90115695 232.68150574 138.125 236.625 C139.07355988 240.28373097 139.06547556 242.39377502 138 246 C135.54833641 249.29621659 132.7814614 249.76840244 128.875 250.625 C125.12903172 251.19026853 125.12903172 251.19026853 122 253 C122.67546875 253.30292969 123.3509375 253.60585938 124.046875 253.91796875 C133.59058136 258.40020078 133.59058136 258.40020078 136 263 C136.48560502 266.88484013 136.34148084 269.23166812 134.75 272.8125 C133 275 133 275 130.9375 275.8125 C128.63517918 276.94162617 128.63517918 276.94162617 127.875 280.25 C127.06494057 284.1171533 126.58309236 288.02247617 126.0625 291.9375 C124.99585124 299.66036775 123.9041969 307.42381404 118 313 C107.15380542 319.55290923 93.1766102 315.14955469 81.59765625 312.77734375 C69.08388645 310.35219456 56.68952065 308.94795311 45.3125 315.5625 C38.77768451 322.45054876 35.45631388 331.30754284 32 340 C31.01 342.31 30.02 344.62 29 347 C-11.59 347 -52.18 347 -94 347 C-93.01 339.74 -92.02 332.48 -91 325 C-90.71500841 318.67883524 -90.51068629 312.44068868 -90.5625 306.125 C-90.56587372 305.31093689 -90.56924744 304.49687378 -90.57272339 303.65814209 C-90.65525256 289.79762973 -91.71070097 276.50876103 -95 263 C-95.22010742 262.0728418 -95.44021484 261.14568359 -95.66699219 260.19042969 C-100.01889975 242.44897111 -107.13032707 225.76332835 -114.17602539 208.96899414 C-131 168.76592593 -131 168.76592593 -131 161 C-128.74572576 158.5000283 -126.18434743 157.04920838 -123 156 C-118.63003205 156.49863343 -115.1139797 157.8860203 -112 161 C-111.4884663 162.58800296 -111.03704611 164.19582497 -110.625 165.8125 C-109.0489493 171.2541875 -107.3174251 174.59647097 -102.3515625 177.60400391 C-98.52718158 179.19693879 -95.25792453 179.43405903 -91.1875 179.3984375 C-90.4555542 179.40130768 -89.7236084 179.40417786 -88.96948242 179.40713501 C-87.42984234 179.40916647 -85.8901759 179.40370112 -84.35058594 179.39111328 C-82.00656916 179.37504503 -79.66427626 179.39099177 -77.3203125 179.41015625 C-75.81770456 179.40817365 -74.31509769 179.40432963 -72.8125 179.3984375 C-72.11858154 179.40451019 -71.42466309 179.41058289 -70.7097168 179.4168396 C-64.59926129 179.32940638 -60.70477339 177.62548161 -56.3125 173.4375 C-54.14922145 170.72319767 -53.46894927 168.23325351 -52.6875 164.875 C-51.91969134 161.97048954 -51.46553849 160.41766035 -49.21484375 158.3984375 C-46.01643993 156.64080998 -43.99313455 155.78718545 -40.375 156.5625 C-38.70296707 157.57451993 -37.03680151 158.59626573 -35.375 159.625 C-30.50855371 161.60762627 -26.17803109 161.91798889 -21 161 C-18.41269109 159.67882098 -16.24876866 158.2097741 -13.97265625 156.41015625 C-11.7813201 154.84367635 -10.68946645 154.18476793 -8 154 C-4.51898619 156.4105827 -1.6115756 159.41693047 1.38378906 162.40234375 C2.86440391 163.86453576 4.38209107 165.27875287 5.90625 166.6953125 C12.89751205 173.59027617 12.89751205 173.59027617 13.18237305 177.50854492 C12.64226223 179.79121 11.88533192 181.83201646 11 184 C10.62576598 191.37912725 12.06675721 197.40560096 17 203 C21.6046837 207.29770478 26.72833672 209.93820379 33.16015625 210.03125 C39.5740545 209.59118837 45.1868497 207.86928856 49.76171875 203.203125 C54.10363113 197.7783628 56.34546209 192.60736827 55.875 185.5625 C54.94617347 179.29558998 52.67194053 174.70993918 48.25 170.1875 C42.35410607 166.21910986 37.19319019 164.3690184 30 165 C29.36457275 165.27191162 28.72914551 165.54382324 28.07446289 165.82397461 C25.48950274 166.84276539 23.78802314 167.21141783 21 167 C17.26527478 164.60460134 14.30766478 161.64107364 11.29394531 158.3984375 C9.87165951 156.87141351 8.41054573 155.39201838 6.9375 153.9140625 C1.77068943 148.55697279 1.77068943 148.55697279 0 146 C0.23909191 142.51979837 1.93913688 140.62307747 4.0625 137.9375 C7.10578549 133.46078294 7.80911582 130.06823993 7.5546875 124.6953125 C6.94793825 121.74702388 5.93575304 119.8932358 4.3125 117.375 C2.64893504 114.77421535 1.94281713 113.61738116 2.23046875 110.51171875 C3.54088278 106.34101014 4.27316407 104.48455729 8 102 C9.59644667 101.57409771 11.20186671 101.18113957 12.8125 100.8125 C18.18951954 99.27957776 21.08727769 96.72914324 24 92 C25.18090212 88.45729365 25.19968702 85.20562321 25.23828125 81.515625 C25.25038887 80.41489655 25.25038887 80.41489655 25.26274109 79.29193115 C25.27656199 77.73858996 25.28729306 76.18521866 25.29516602 74.63183594 C25.30667055 73.05101561 25.32709844 71.47023366 25.35668945 69.88964844 C25.39957923 67.59804048 25.41556465 65.30758562 25.42578125 63.015625 C25.45204338 61.9683725 25.45204338 61.9683725 25.47883606 60.89996338 C25.45489043 55.41200354 24.01422558 52.41944373 21 48 C17.58975812 45.14491378 14.5964994 43.85909672 10.375 42.75 C6.71321433 41.6223435 5.1748189 40.49611285 3.3125 37.125 C2.20252904 34.36016326 1.92734381 33.33906222 2.5625 30.375 C3.57451993 28.70296707 4.59626573 27.03680151 5.625 25.375 C7.58931589 20.55349736 7.70356778 16.1391038 7 11 C5.35486986 7.82319697 3.75216667 5.75216667 1.25 3.25 C0.63125 2.63125 0.63125 2.63125 0 2 C0 1.34 0 0.68 0 0 Z " fill="#656BFF" transform="translate(314,157)"/>
<path d="M0 0 C5.23988008 3.17773373 9.18170384 7.85847691 12 13.25 C12.9517426 18.74895723 13.72671081 25.4944945 11.6796875 30.77905273 C11.25250156 33.7942696 11.25250156 33.7942696 13.98754883 36.55859375 C15.15022969 37.70000935 16.32878171 38.82539754 17.51953125 39.9375 C18.13769211 40.54005615 18.75585297 41.1426123 19.39274597 41.76342773 C21.37316857 43.69036418 23.37239713 45.59614575 25.375 47.5 C27.36425873 49.40626269 29.3489361 51.31675492 31.32511902 53.23657227 C32.55561807 54.43046553 33.79405151 55.61624903 35.04121399 56.79272461 C35.60487167 57.33678955 36.16852936 57.88085449 36.74926758 58.44140625 C37.24525955 58.91263916 37.74125153 59.38387207 38.25227356 59.86938477 C41.3604092 63.73755073 41.81063318 67.55343542 41.78955078 72.3918457 C41.78932419 74.13308464 41.78932419 74.13308464 41.78909302 75.90950012 C41.77877045 77.15237289 41.76844788 78.39524567 41.7578125 79.67578125 C41.7549826 80.95607712 41.75215271 82.23637299 41.74923706 83.5554657 C41.7416278 86.94703075 41.72200293 90.3384225 41.6998291 93.72991943 C41.67931206 97.19557349 41.67022286 100.66125575 41.66015625 104.12695312 C41.63811492 110.91804366 41.60465129 117.70900612 41.5625 124.5 C42.67625 124.45875 43.79 124.4175 44.9375 124.375 C48.5625 124.5 48.5625 124.5 50.5625 126.5 C50.60117187 127.95599609 50.60117187 127.95599609 50.640625 129.44140625 C50.83860913 133.61257199 51.14634681 137.0512947 53.5625 140.5 C59.74590493 145.28806613 67.81091515 148.51163224 75.5625 149.5 C79.35269616 148.38900676 80.94295214 147.24860085 83.5625 144.34765625 C85.5625 142.5 85.5625 142.5 88.578125 142.06640625 C91.87204778 142.54497356 92.94855339 143.10519285 95.3125 145.375 C95.97894531 146.00535156 96.64539063 146.63570312 97.33203125 147.28515625 C98.06808594 148.01605469 98.80414063 148.74695313 99.5625 149.5 C100.89861328 150.79744141 100.89861328 150.79744141 102.26171875 152.12109375 C110.3121603 160.0337246 110.3121603 160.0337246 111 164.0625 C110.43941152 168.46712379 108.50749944 170.73891227 105.77734375 174.15625 C104.09053094 177.41055124 104.6416456 178.9728742 105.5625 182.5 C105.73563721 183.16757324 105.90877441 183.83514648 106.0871582 184.52294922 C107.55363799 189.73722955 109.20468375 195.17962626 112.5625 199.5 C116.36912817 201.34820699 119.35216946 201.89360668 123.55078125 202.24609375 C126.5625 202.5 126.5625 202.5 128.5625 204.5 C129.00705788 208.75606609 128.97665676 213.02692762 128.98803711 217.3034668 C128.99993996 219.4267903 129.04910972 221.54721181 129.09960938 223.66992188 C129.10907315 225.01821497 129.11630841 226.36652593 129.12109375 227.71484375 C129.13454834 228.94323975 129.14800293 230.17163574 129.16186523 231.43725586 C128.5625 234.5 128.5625 234.5 126.19091797 236.42016602 C123.28135874 237.61550137 121.36633635 237.57215829 118.25 237.5 C115.26260858 237.76217278 115.26260858 237.76217278 112.5625 239.5 C108.23665323 245.65332616 104.39393995 254.31489486 104.69921875 261.89453125 C105.76657508 265.11591891 107.28918899 266.99277311 109.50390625 269.49609375 C111.29328054 272.88335946 111.23878905 274.69587411 110.5625 278.5 C108.07812313 282.03034969 105.09595254 284.94289587 102 287.9375 C101.20013672 288.76443359 100.40027344 289.59136719 99.57617188 290.44335938 C93.66188319 296.29005619 93.66188319 296.29005619 88.7578125 297.2265625 C84.52080471 296.2631353 82.18953711 294.40004288 78.87109375 291.71484375 C75.64219508 290.01571095 74.07240349 290.58473808 70.5625 291.5 C69.89484619 291.67313721 69.22719238 291.84627441 68.53930664 292.0246582 C63.32511701 293.49127701 57.8828387 295.14221098 53.5625 298.5 C51.71429301 302.30662817 51.16889332 305.28966946 50.81640625 309.48828125 C50.5625 312.5 50.5625 312.5 48.5625 314.5 C45.61328125 314.75878906 45.61328125 314.75878906 41.875 314.765625 C41.21669189 314.76753845 40.55838379 314.7694519 39.88012695 314.77142334 C38.4881146 314.7727845 37.09608953 314.76909283 35.70410156 314.76074219 C33.57067411 314.750041 31.43808869 314.76063906 29.3046875 314.7734375 C27.95312314 314.77211589 26.6015593 314.76955347 25.25 314.765625 C24.01636719 314.76336914 22.78273437 314.76111328 21.51171875 314.75878906 C18.5625 314.5 18.5625 314.5 16.5625 312.5 C16.50191406 311.51773437 16.44132813 310.53546875 16.37890625 309.5234375 C16.0974144 305.47861611 15.81562987 301.92231635 13.5625 298.5 C7.56166481 293.90614029 -1.23495784 290.31580553 -8.82421875 290.6484375 C-11.39696253 291.48679048 -12.90452615 292.31354456 -14.9375 294.0625 C-17.47551144 295.999699 -18.39804278 296.49392966 -21.6875 297 C-24.66745724 296.45818959 -25.64633039 295.88822614 -27.4375 293.5 C-30.70807278 294.94572039 -32.99865303 296.74575808 -35.59521484 299.19262695 C-36.40219818 299.95134598 -37.20918152 300.710065 -38.0406189 301.49177551 C-41.69057864 304.98593934 -45.32378383 308.49646774 -48.93896484 312.02661133 C-50.84731002 313.88591823 -52.77484493 315.71557768 -54.71826172 317.53930664 C-57.52364713 320.17415553 -60.27649439 322.85521441 -63.0234375 325.55078125 C-63.89616302 326.3523616 -64.76888855 327.15394196 -65.6680603 327.97981262 C-70.29353295 332.6149447 -70.29353295 332.6149447 -71.48956299 338.84408569 C-70.98806222 342.29756048 -70.98806222 342.29756048 -70.12197876 345.53605652 C-68.90149639 350.82101345 -70.04231878 354.98776192 -72.6328125 359.65234375 C-76.62433135 365.50875256 -81.72588511 369.26279504 -88.4375 371.5 C-95.82583287 372.23883329 -102.17659535 371.70543784 -108.4375 367.5 C-114.16182801 362.46615513 -117.66982183 356.87374719 -118.75 349.3125 C-119.14917327 342.12738106 -116.38727167 336.79961359 -112.8125 330.75 C-107.16412186 325.39890492 -101.39289432 323.18664995 -93.625 323.125 C-90.56976464 323.22175532 -87.94846458 323.34077146 -85.02766418 324.2509613 C-82.35879142 324.78393 -82.35879142 324.78393 -80.241745 323.02577209 C-79.13921135 321.90325294 -79.13921135 321.90325294 -78.0144043 320.75805664 C-77.17391037 319.91710953 -76.33341644 319.07616241 -75.467453 318.20973206 C-74.5745607 317.28587204 -73.6816684 316.36201202 -72.76171875 315.41015625 C-71.8365596 314.47650742 -70.91140045 313.54285858 -69.95820618 312.58091736 C-67.50015918 310.09997428 -65.06065943 307.60154468 -62.62457275 305.09906006 C-60.13500359 302.5480851 -57.62833656 300.01403638 -55.12304688 297.47851562 C-50.21098168 292.50212457 -45.31830028 287.50705378 -40.4375 282.5 C-41.65757944 279.8094472 -41.65757944 279.8094472 -43.4375 277.5 C-43.75390625 274.72265625 -43.75390625 274.72265625 -43.4375 271.5 C-41.58984375 269.24609375 -41.58984375 269.24609375 -39.375 266.9375 C-37.25934697 263.83712228 -36.27234658 261.76955513 -36.76367188 257.99267578 C-38.51340956 251.2675661 -41.19934914 242.34729191 -47.23632812 238.29150391 C-51.21434198 236.71834254 -55.21929646 236.66245405 -59.4375 236.5 C-61.4375 234.5 -61.4375 234.5 -61.5625 230.875 C-61.52125 229.76125 -61.48 228.6475 -61.4375 227.5 C-62.50745712 227.50999275 -62.50745712 227.50999275 -63.59902954 227.52018738 C-70.33711189 227.58041886 -77.07511857 227.62603534 -83.81340981 227.65543652 C-87.27725378 227.67106042 -90.74087439 227.69223795 -94.20458984 227.72631836 C-98.19105309 227.7652946 -102.1774274 227.77973637 -106.1640625 227.79296875 C-108.02062973 227.81619453 -108.02062973 227.81619453 -109.91470337 227.83988953 C-117.78303735 227.84142552 -122.7003737 227.22837682 -128.51782227 221.66503906 C-129.60358732 220.53867403 -130.68197482 219.40516304 -131.75390625 218.265625 C-132.94165453 217.03997415 -134.12981783 215.81472536 -135.31835938 214.58984375 C-137.16959484 212.66388811 -139.01568317 210.73346814 -140.85424805 208.79541016 C-142.64107463 206.91821043 -144.4459217 205.05992206 -146.25390625 203.203125 C-146.79986954 202.61678284 -147.34583282 202.03044067 -147.90834045 201.42633057 C-149.62905597 199.60295097 -149.62905597 199.60295097 -152.4375 197.5 C-155.13397558 197.48699812 -155.13397558 197.48699812 -157.4375 198.5 C-165.13004733 199.15537065 -171.92123721 198.98149108 -178.4375 194.5 C-183.55182234 189.80697241 -187.04871125 185.28390908 -187.7734375 178.23046875 C-187.8674791 169.70089544 -187.52565625 163.875197 -181.6015625 157.53515625 C-175.09163997 151.43678055 -169.39055936 149.94221215 -160.5390625 150.12890625 C-153.61968491 150.95679148 -148.29851224 153.96060317 -143.9375 159.375 C-139.94960816 165.39063346 -138.91283694 171.36214204 -139.4375 178.5 C-139.79328125 179.63695312 -140.1490625 180.77390625 -140.515625 181.9453125 C-141.10164002 186.97104728 -138.66116855 190.4452972 -135.72723389 194.3706665 C-134.32398543 196.10802475 -132.87007498 197.77857467 -131.375 199.4375 C-130.86760284 200.00781952 -130.36020569 200.57813904 -129.83743286 201.16574097 C-120.63771559 210.93790521 -111.20738961 212.93169217 -98.07484436 213.51472473 C-85.85358102 213.78861971 -73.62949224 213.34395986 -61.4375 212.5 C-61.47875 211.22125 -61.52 209.9425 -61.5625 208.625 C-61.6328125 206.4453125 -61.6328125 206.4453125 -61.4375 204.5 C-59.07449651 202.13699651 -57.8576502 201.98566556 -54.625 201.375 C-53.77292969 201.20742187 -52.92085937 201.03984375 -52.04296875 200.8671875 C-49.46906189 200.504448 -47.03288412 200.43476593 -44.4375 200.5 C-44.355 199.85417969 -44.2725 199.20835937 -44.1875 198.54296875 C-43.53215807 195.8840554 -42.73541928 193.87290722 -41.5625 191.42578125 C-37.21060501 183.13416003 -37.21060501 183.13416003 -37.53515625 174.30859375 C-39.42180402 171.72653701 -39.42180402 171.72653701 -41.66015625 169.640625 C-43.4375 167.5 -43.4375 167.5 -43.77734375 164.3515625 C-43.4375 161.5 -43.4375 161.5 -41.9375 159.625 C-41.4425 159.25375 -40.9475 158.8825 -40.4375 158.5 C-41.78800842 155.50573562 -43.30453885 153.3589567 -45.58276367 151.00073242 C-46.53967354 150.00531685 -46.53967354 150.00531685 -47.51591492 148.98979187 C-48.20546768 148.28546524 -48.89502045 147.58113861 -49.60546875 146.85546875 C-50.31850662 146.12628738 -51.03154449 145.39710602 -51.76618958 144.64582825 C-53.27542385 143.10896851 -54.78776674 141.57515621 -56.30297852 140.04418945 C-58.61686178 137.69575972 -60.90270713 135.32208639 -63.18945312 132.94726562 C-64.65978903 131.45668486 -66.13174188 129.96769698 -67.60546875 128.48046875 C-68.28490036 127.76602097 -68.96433197 127.05157318 -69.66435242 126.31547546 C-71.52346462 124.47300378 -73.21138551 122.87732434 -75.4375 121.5 C-79.20573005 121.37553825 -79.20573005 121.37553825 -82.4375 122.5 C-90.84505078 123.15941575 -97.40175591 122.06155599 -104.1875 116.875 C-109.90899142 111.520103 -111.66052803 105.65697679 -111.9375 97.9375 C-111.6802115 91.03091185 -110.33951192 86.55347392 -105.56640625 81.53125 C-98.93256961 75.41156705 -93.72168029 74.01869371 -84.73046875 74.19140625 C-78.23008829 74.80057595 -73.49114599 77.00487453 -69.0625 81.8125 C-63.76086721 88.77825641 -62.82740172 94.95862402 -63.4375 103.5 C-63.76258545 104.54164307 -64.0876709 105.58328613 -64.42260742 106.65649414 C-64.43936401 110.9810668 -64.09230135 111.44473369 -61.33813477 114.50756836 C-59.87209946 115.97233961 -58.38407232 117.41531245 -56.87890625 118.83984375 C-56.10062973 119.60680069 -55.32235321 120.37375763 -54.52049255 121.16395569 C-52.03180697 123.60787956 -49.51676211 126.02253195 -47 128.4375 C-45.30743201 130.08994211 -43.61665304 131.74421881 -41.92773438 133.40039062 C-37.78484227 137.45510574 -33.61996134 141.48613504 -29.4375 145.5 C-26.7469472 144.27992056 -26.7469472 144.27992056 -24.4375 142.5 C-21.66015625 142.18359375 -21.66015625 142.18359375 -18.4375 142.5 C-16.18359375 144.34765625 -16.18359375 144.34765625 -13.875 146.5625 C-10.77462228 148.67815303 -8.70705513 149.66515342 -4.93017578 149.17382812 C1.7949339 147.42409044 10.71520809 144.73815086 14.77099609 138.70117188 C16.34415746 134.72315802 16.40004595 130.71820354 16.5625 126.5 C18.5625 124.5 18.5625 124.5 20.5078125 124.3046875 C22.52604167 124.36979167 24.54427083 124.43489583 26.5625 124.5 C30.38998248 90.22538942 30.38998248 90.22538942 18.94352722 59.44944763 C17.35678965 57.73958907 15.71466712 56.14337495 14 54.5625 C13.20820847 53.80273361 13.20820847 53.80273361 12.40042114 53.02761841 C7.71314398 48.70820373 2.91812155 45.32637584 -3.66479492 45.22485352 C-6.47220671 45.33994045 -9.10882126 45.6748099 -11.90332031 46.07861328 C-17.9711902 46.80209652 -22.12217902 44.92076515 -27.1875 41.8125 C-33.63386318 35.18707117 -35.82835033 28.77976547 -35.70703125 19.63671875 C-35.11695011 12.76954254 -32.54038007 8.19317054 -27.5 3.5625 C-20.10039733 -2.6602275 -8.91490172 -3.95052508 0 0 Z M-18.4375 15.5625 C-20.96725133 19.27807226 -21.2253128 21.0882483 -20.4375 25.5 C-18.03672048 28.74811347 -16.29541399 30.18969068 -12.5 31.5625 C-8.42804493 31.47939888 -6.55228893 30.03529331 -3.4375 27.5 C-2.0475592 24.7201184 -2.25261796 22.5813674 -2.4375 19.5 C-3.64456879 16.15734795 -4.35806849 15.55295434 -7.4375 13.5 C-12.34237343 12.94622397 -14.33729388 12.74360829 -18.4375 15.5625 Z M-94.375 91.5625 C-96.97077109 95.2595073 -97.15003588 97.06644342 -96.4375 101.5 C-95.02871904 104.4901643 -95.02871904 104.4901643 -92.4375 106.5 C-88.51841414 107.64009771 -86.40591496 107.90888632 -82.625 106.3125 C-80.26830382 104.35980888 -79.25423491 103.44024566 -78.4375 100.5 C-78.51191679 96.33265954 -78.79798754 94.23355841 -81.5625 91.0625 C-86.43678484 88.41343215 -89.80379996 88.35293401 -94.375 91.5625 Z M-170.375 167.5 C-173.22867716 171.65080314 -173.1474846 173.5301078 -172.4375 178.5 C-169.86499516 181.84425629 -167.81001107 183.31699852 -163.625 183.875 C-160.28081062 183.7538191 -160.28081062 183.7538191 -157.625 181.375 C-155.18694793 178.17070299 -154.4375 176.51064998 -154.4375 172.5 C-156.04161848 168.97093933 -157.17909362 167.67227092 -160.4375 165.5 C-164.76101988 164.93954372 -166.73454773 165.0213942 -170.375 167.5 Z M-2.4375 183.5 C-14.00390681 197.27830931 -17.59415072 210.89320564 -16.4375 228.5 C-15.83139578 232.06531894 -14.87049545 235.18736116 -13.4375 238.5 C-13.17066406 239.16773438 -12.90382812 239.83546875 -12.62890625 240.5234375 C-6.79112143 253.65196693 3.70784697 261.89069686 16.5625 267.5 C29.91079323 272.44381231 43.89957648 270.75784304 56.6796875 265.03515625 C68.19092506 258.90518828 76.96952652 249.02104533 81.58984375 236.8359375 C85.68466838 222.79184017 85.45502731 208.64913691 78.5625 195.5 C71.11829658 183.21361797 60.89165256 175.07258311 47.34375 170.38671875 C42.89237735 169.34285347 38.80421051 169.15572222 34.25 169.1875 C33.40695313 169.19313965 32.56390625 169.1987793 31.6953125 169.20458984 C18.92174468 169.45384223 6.71407113 174.34842887 -2.4375 183.5 Z M-102.4375 342.5 C-103.57759771 346.41908586 -103.84638632 348.53158504 -102.25 352.3125 C-100.29730888 354.66919618 -99.37774566 355.68326509 -96.4375 356.5 C-92.64924497 356.36470518 -90.20565927 355.99240979 -87 353.9375 C-85.17990693 351.09815481 -84.80340798 348.83922437 -84.9921875 345.47265625 C-85.79228497 341.92836485 -87.50697769 340.49524923 -90.4375 338.5 C-95.79431029 337.63908406 -98.84105554 338.37466665 -102.4375 342.5 Z " fill="#3991FF" transform="translate(198.4375,9.5)"/>
<path d="M0 0 C22.22698361 -0.6334828 43.66095094 6.5984536 59.98876953 21.90087891 C71.31528376 32.97125646 78.2725591 47.12014188 78.53295898 63.02587891 C78.49466728 82.26829262 73.21886673 96.57013142 59.7421875 110.6953125 C44.16111015 125.52436198 23.45966473 132.11929036 2.28125 132.21679688 C-4.45826172 132.03748876 -11.47024047 131.23176267 -18.00878906 129.63110352 C-21.52588054 128.91667057 -23.82984265 128.6253577 -27.07421875 130.33007812 C-29.37200914 132.06159811 -31.48378319 133.89624179 -33.59765625 135.84765625 C-34.32597656 136.48638672 -35.05429687 137.12511719 -35.8046875 137.78320312 C-37.20814074 139.01472697 -38.60499181 140.25382807 -39.99414062 141.50146484 C-46.31748257 147.16015625 -46.31748257 147.16015625 -48.84765625 147.16015625 C-48.72648437 146.56589844 -48.6053125 145.97164062 -48.48046875 145.359375 C-47.92821585 142.62784718 -47.38787259 139.89408893 -46.84765625 137.16015625 C-46.656875 136.22558594 -46.46609375 135.29101562 -46.26953125 134.328125 C-45.19493869 128.84002726 -44.4503203 123.75439413 -44.84765625 118.16015625 C-46.80127047 115.53469187 -46.80127047 115.53469187 -49.84765625 113.16015625 C-62.56802875 101.72149429 -70.95029251 87.25912118 -72.05078125 69.96875 C-72.29415869 52.46585595 -67.31649927 37.00308703 -55.09423828 24.28588867 C-53.698825 22.89023976 -52.27367427 21.52451937 -50.84765625 20.16015625 C-49.69330078 19.05027344 -49.69330078 19.05027344 -48.515625 17.91796875 C-35.14651016 6.21145252 -17.43233138 0.98041919 0 0 Z M-46.84765625 59.16015625 C-48.68313897 62.24710446 -48.84972626 64.04423569 -48.78515625 67.66015625 C-47.67042587 71.82181632 -46.12791952 73.43993793 -42.84765625 76.16015625 C-39.73812246 77.71492315 -37.28498864 77.44660062 -33.84765625 77.16015625 C-30.45216498 75.43037768 -28.42706291 74.09224522 -26.41015625 70.84765625 C-25.65918282 67.25967209 -25.958848 64.71538926 -26.84765625 61.16015625 C-28.67104677 58.45447999 -29.92223061 56.62286907 -32.84765625 55.16015625 C-38.66237802 54.46330354 -42.74113122 54.55587061 -46.84765625 59.16015625 Z M-7.16015625 61.03515625 C-8.11150897 63.97570102 -8.21748768 66.07822764 -7.84765625 69.16015625 C-6.2133022 72.1953852 -4.79210325 74.44367922 -2.03515625 76.53515625 C1.32176785 77.49427742 3.66311523 77.63327198 7.15234375 77.16015625 C11.08816247 74.89998312 13.64697287 72.47973576 15.27734375 68.22265625 C15.11370233 64.21344144 14.12673691 61.64825084 12.15234375 58.16015625 C8.7297627 55.12872732 5.51877575 54.62889196 1.08203125 54.8046875 C-2.80644644 55.52098602 -4.9737879 57.91177289 -7.16015625 61.03515625 Z M34.15234375 60.16015625 C32.53804452 63.38875472 32.55663718 66.67009278 33.15234375 70.16015625 C34.8883648 73.1852377 36.98814512 75.57805694 40.15234375 77.16015625 C45.27604773 77.7674447 45.27604773 77.7674447 49.9765625 76.11328125 C53.77987119 72.9822281 55.03897742 71.29381957 55.52734375 66.41015625 C55.5029315 63.05957557 54.90835729 61.31121093 52.77734375 58.72265625 C49.24748515 55.2768419 47.22397855 54.76459789 42.2578125 54.80078125 C38.53640922 55.43597439 36.74921526 57.49994641 34.15234375 60.16015625 Z " fill="#23A3FF" transform="translate(422.84765625,63.83984375)"/>
<path d="M0 0 C2.3761363 1.7981572 3.65141783 3.22813948 4.875 5.9375 C5.09009354 9.48654338 3.87254124 11.96228728 1.59228516 14.67419434 C-0.27672845 16.64067914 -2.18921746 18.55231755 -4.125 20.453125 C-4.8277002 21.15395203 -5.53040039 21.85477905 -6.25439453 22.57684326 C-7.73705993 24.05279995 -9.22331204 25.52516123 -10.71289062 26.99414062 C-12.99873094 29.24874828 -15.27365543 31.51392469 -17.546875 33.78125 C-18.98896071 35.21416855 -20.43164849 36.64648148 -21.875 38.078125 C-22.90004639 39.09679657 -22.90004639 39.09679657 -23.94580078 40.13604736 C-24.5798584 40.76049744 -25.21391602 41.38494751 -25.8671875 42.02832031 C-26.42519043 42.57949524 -26.98319336 43.13067017 -27.55810547 43.69854736 C-29.67102375 45.6056654 -30.9579677 45.99439569 -33.8125 46.375 C-37.92088454 45.89166064 -39.50802978 44.08546998 -42 41 C-43.93491092 38.12747482 -45.63435045 35.15312764 -47.3125 32.125 C-47.76689453 31.34769531 -48.22128906 30.57039063 -48.68945312 29.76953125 C-51.34277497 25.02148164 -52.71481683 21.58406412 -52 16 C-50.375 13.5625 -50.375 13.5625 -48 12 C-45.0625 11.4375 -45.0625 11.4375 -42 12 C-37.75263129 15.33721827 -35.48407447 19.30785934 -33 24 C-29.25113444 22.44346929 -26.91044992 20.12681671 -24.0859375 17.24609375 C-23.16039062 16.30958984 -22.23484375 15.37308594 -21.28125 14.40820312 C-20.31214898 13.41831227 -19.34340287 12.42807386 -18.375 11.4375 C-16.46934629 9.49549092 -14.55964369 7.55765812 -12.6484375 5.62109375 C-11.80458496 4.7592749 -10.96073242 3.89745605 -10.09130859 3.00952148 C-6.76611826 -0.18562697 -4.57063831 -0.45706383 0 0 Z " fill="#3E8CFF" transform="translate(256,206)"/>
<path d="M0 0 C2.79929375 2.5121867 3.79979627 4.37269496 4.9375 7.9375 C5.01772383 11.86846755 4.2269509 13.76732933 2 17 C-1.23267067 19.2269509 -3.13153245 20.01772383 -7.0625 19.9375 C-10.62730504 18.79979627 -12.4878133 17.79929375 -15 15 C-16.33975615 11.07114455 -16.41765937 8.04414842 -14.875 4.1875 C-10.53155302 -0.87985481 -6.30391866 -2.14966264 0 0 Z " fill="#5F6FFF" transform="translate(353,335)"/>
</svg>
